<?xml version="1.0" encoding="utf-8"?>
<!-- Generator: Adobe Illustrator 21.1.0, SVG Export Plug-In . SVG Version: 6.00 Build 0)  -->
<svg version="1.1" id="Layer_1" xmlns="http://www.w3.org/2000/svg" xmlns:xlink="http://www.w3.org/1999/xlink" x="0px" y="0px"
	 viewBox="0 0 512 512" style="enable-background:new 0 0 512 512;" xml:space="preserve">
<style type="text/css">
	.st0{fill:#FFA50D;}
</style>
<path class="st0" d="M376,181c24.8,0,45-20.2,45-45s-20.2-45-45-45s-45,20.2-45,45S351.2,181,376,181z"/>
<path class="st0" d="M286,91c24.8,0,45-20.2,45-45S310.8,0,286,0s-45,21.2-45,46S261.2,91,286,91z"/>
<path class="st0" d="M136,151c41.4,0,75-33.6,75-75S177.4,0,136,0S61,34.6,61,76S94.6,151,136,151z"/>
<path class="st0" d="M232.7,510.4l60-30c5.1-2.6,8.3-7.7,8.3-13.4v-46h-90v76c0,5.2,2.7,10,7.1,12.8
	C222.4,512.5,228,512.8,232.7,510.4z"/>
<path class="st0" d="M68.3,328.9L171.8,391h168.3l103.6-62.1c4.3-2.6,7.3-8.8,7.3-12.9v-60c0-8.3-6.7-15-15-15H76
	c-8.3,0-15,6.7-15,15v60C61,323.4,65.3,325.9,68.3,328.9z"/>
<path class="st0" d="M256,151c-41.7,0-77.5,24.7-94.5,60h188.9C333.5,175.7,297.7,151,256,151z"/>
</svg>
